<?xml version="1.0" standalone="no"?><!DOCTYPE svg PUBLIC "-//W3C//DTD SVG 1.1//EN" "http://www.w3.org/Graphics/SVG/1.1/DTD/svg11.dtd"><svg t="1611558465785" class="icon" viewBox="0 0 1024 1024" version="1.1" xmlns="http://www.w3.org/2000/svg" p-id="3453" width="30" height="30" xmlns:xlink="http://www.w3.org/1999/xlink"><defs><style type="text/css"></style></defs><path d="M162.24 58.56C217.344 16.128 297.28 25.312 339.104 79.744l101.568 127.84a123.904 123.904 0 0 1-11.328 162.336l-34.464 38.72 6.72 10.304a749.504 749.504 0 0 0 81.632 103.84l10.944 11.232c33.216 33.184 71.104 63.616 115.104 92.736l8.992 5.792 35.52-35.52c44.8-44.8 113.6-49.92 163.104-12.992l128.32 101.984 2.816 2.496 5.184 5.28c51.52 47.168 51.52 128.096 1.024 178.56l-85.568 85.568c-98.88 95.168-325.92-16.928-555.136-246.272l-9.696-9.76C79.328 474.144-29.376 249.824 67.712 152.736l80.64-80.704 0.576-0.96c2.08-3.168 4.608-5.888 7.52-8.256l3.008-2.24 0.96-0.608z m126.496 60.64c-20.352-26.464-60.032-31.04-87.52-9.92l1.44-1.024-89.664 89.728c-60.224 60.224 39.36 262.016 245.824 468.448l9.6 9.536c201.632 198.624 396.16 293.344 455.488 236.32l85.12-85.12c25.152-25.184 25.152-64.032-0.096-87.2l-5.088-5.088-121.92-96.928c-23.328-19.456-55.584-18.976-78.624 0.512l-4.224 3.84-71.36 71.456-21.536-13.12c-61.28-37.504-112.832-76.96-157.216-121.344-44.288-44.32-83.68-95.84-121.216-157.248l-12.352-20.224 67.456-75.776c23.2-23.2 25.056-58.112 3.872-83.52zM560 128C745.568 128 896 278.432 896 464a32 32 0 0 1-64 0A272 272 0 0 0 560 192a32 32 0 0 1 0-64z m0 128a208 208 0 0 1 208 208 32 32 0 0 1-64 0 144 144 0 0 0-144-144 32 32 0 0 1 0-64z" p-id="3454" fill="#cdcdcd"></path></svg>