<?xml version="1.0" standalone="no"?><!DOCTYPE svg PUBLIC "-//W3C//DTD SVG 1.1//EN" "http://www.w3.org/Graphics/SVG/1.1/DTD/svg11.dtd"><svg t="1611558620615" class="icon" viewBox="0 0 1024 1024" version="1.1" xmlns="http://www.w3.org/2000/svg" p-id="3466" xmlns:xlink="http://www.w3.org/1999/xlink" width="30" height="30"><defs><style type="text/css"></style></defs><path d="M825.6 347.733333l-298.666667-298.666667C522.666667 44.8 518.4 42.666667 512 42.666667c-6.4 0-10.666667 2.133333-14.933333 6.4l-298.666667 298.666667C194.133333 352 192 356.266667 192 362.666667c0 12.8 8.533333 21.333333 21.333333 21.333333l192 0 0 512c0 46.933333 38.4 85.333333 85.333333 85.333333l42.666667 0c46.933333 0 85.333333-38.4 85.333333-85.333333L618.666667 384l192 0c12.8 0 21.333333-8.533333 21.333333-21.333333C832 356.266667 829.866667 352 825.6 347.733333zM576 341.333333l0 554.666667c0 23.466667-19.2 42.666667-42.666667 42.666667l-42.666667 0c-23.466667 0-42.666667-19.2-42.666667-42.666667L448 341.333333l-183.466667 0L512 93.866667 759.466667 341.333333 576 341.333333z" p-id="3467" fill="#cdcdcd"></path></svg>