<?xml version="1.0" standalone="no"?><!DOCTYPE svg PUBLIC "-//W3C//DTD SVG 1.1//EN" "http://www.w3.org/Graphics/SVG/1.1/DTD/svg11.dtd"><svg t="1618214426295" class="icon" viewBox="0 0 1024 1024" version="1.1" xmlns="http://www.w3.org/2000/svg" p-id="7416" xmlns:xlink="http://www.w3.org/1999/xlink" width="24" height="24"><defs><style type="text/css"></style></defs><path d="M512 953.6h-6.4c-6.4 0-12.8-3.2-16-9.6L118.4 572.8C64 518.4 32 444.8 32 364.8s32-153.6 86.4-208c54.4-54.4 128-86.4 208-86.4 67.2 0 134.4 22.4 185.6 67.2 115.2-96 288-86.4 393.6 19.2 115.2 115.2 115.2 300.8 0 416L534.4 944c-6.4 6.4-12.8 9.6-22.4 9.6zM326.4 134.4c-60.8 0-118.4 25.6-163.2 67.2C118.4 246.4 96 304 96 364.8s22.4 118.4 67.2 163.2L512 876.8l348.8-348.8c89.6-89.6 89.6-236.8 0-326.4-89.6-89.6-236.8-89.6-326.4 0-12.8 12.8-35.2 12.8-44.8 0-44.8-41.6-102.4-67.2-163.2-67.2z" fill="#757883" p-id="7417"></path></svg>