<?xml version="1.0" standalone="no"?><!DOCTYPE svg PUBLIC "-//W3C//DTD SVG 1.1//EN" "http://www.w3.org/Graphics/SVG/1.1/DTD/svg11.dtd"><svg t="1618214446530" class="icon" viewBox="0 0 1024 1024" version="1.1" xmlns="http://www.w3.org/2000/svg" p-id="8849" xmlns:xlink="http://www.w3.org/1999/xlink" width="24" height="24"><defs><style type="text/css"></style></defs><path d="M564.693333 930.133333A426.666667 426.666667 0 0 1 288.853333 178.56a419.2 419.2 0 0 1 152.533334-82.986667 42.666667 42.666667 0 0 1 45.44 14.08A42.666667 42.666667 0 0 1 490.666667 156.8a381.013333 381.013333 0 0 0 3.413333 377.6 384 384 0 0 0 347.306667 192 42.666667 42.666667 0 0 1 39.893333 24.746667 42.666667 42.666667 0 0 1-6.613333 46.933333 424.96 424.96 0 0 1-309.973334 132.053333z m-110.933333-794.026666a379.52 379.52 0 0 0-137.386667 75.093333A384 384 0 1 0 842.88 768a426.666667 426.666667 0 0 1-385.493333-213.333333 423.68 423.68 0 0 1-3.626667-418.56z" p-id="8850"></path></svg>