<?xml version="1.0" standalone="no"?><!DOCTYPE svg PUBLIC "-//W3C//DTD SVG 1.1//EN" "http://www.w3.org/Graphics/SVG/1.1/DTD/svg11.dtd"><svg t="1614568719851" class="icon" viewBox="0 0 1024 1024" version="1.1" xmlns="http://www.w3.org/2000/svg" p-id="11942" xmlns:xlink="http://www.w3.org/1999/xlink" width="16" height="16"><defs><style type="text/css"></style></defs><path d="M431.407407 170.666667v260.74074H170.666667V170.666667h260.74074m20.195556-42.666667H150.471111c-12.325926 0-22.471111 10.145185-22.471111 22.471111v301.226667c0 12.325926 10.145185 22.471111 22.471111 22.471111h301.226667c12.325926 0 22.471111-10.145185 22.471111-22.471111V150.471111c-0.094815-12.325926-10.24-22.471111-22.565926-22.471111zM431.407407 592.592593v260.74074H170.666667V592.592593h260.74074m20.195556-42.666667H150.471111c-12.325926 0-22.471111 10.145185-22.471111 22.471111v301.226667c0 12.325926 10.145185 22.471111 22.471111 22.471111h301.226667c12.325926 0 22.471111-10.145185 22.471111-22.471111V572.397037c-0.094815-12.325926-10.24-22.471111-22.565926-22.471111zM853.333333 592.592593v260.74074H592.592593V592.592593h260.74074m20.195556-42.666667H572.397037c-12.325926 0-22.471111 10.145185-22.471111 22.471111v301.226667c0 12.325926 10.145185 22.471111 22.471111 22.471111h301.226667c12.325926 0 22.471111-10.145185 22.471111-22.471111V572.397037c-0.094815-12.325926-10.24-22.471111-22.565926-22.471111zM853.333333 170.666667v260.74074H592.592593V170.666667h260.74074m20.48-42.666667H572.112593c-12.231111 0-22.186667 9.955556-22.186667 22.186667v301.70074c0 12.231111 9.955556 22.186667 22.186667 22.186667h301.70074c12.231111 0 22.186667-9.955556 22.186667-22.186667V150.186667c0-12.231111-9.955556-22.186667-22.186667-22.186667z" p-id="11943" fill="#969696"></path></svg>