<?xml version="1.0" standalone="no"?><!DOCTYPE svg PUBLIC "-//W3C//DTD SVG 1.1//EN" "http://www.w3.org/Graphics/SVG/1.1/DTD/svg11.dtd"><svg t="1614568278061" class="icon" viewBox="0 0 1024 1024" version="1.1" xmlns="http://www.w3.org/2000/svg" p-id="5440" width="16" height="16" xmlns:xlink="http://www.w3.org/1999/xlink"><defs><style type="text/css"></style></defs><path d="M238.933333 444.142933c37.546667 0 68.266667 30.72 68.266667 68.266667s-30.72 68.266667-68.266667 68.266667-68.266667-30.72-68.266666-68.266667 30.72-68.266667 68.266666-68.266667z m273.066667 0c37.546667 0 68.266667 30.72 68.266667 68.266667s-30.72 68.266667-68.266667 68.266667-68.266667-30.72-68.266667-68.266667 30.72-68.266667 68.266667-68.266667z m273.066667 0c37.546667 0 68.266667 30.72 68.266666 68.266667s-30.72 68.266667-68.266666 68.266667-68.266667-30.72-68.266667-68.266667 30.72-68.266667 68.266667-68.266667z" fill="#979797" p-id="5441"></path></svg>