<?xml version="1.0" standalone="no"?><!DOCTYPE svg PUBLIC "-//W3C//DTD SVG 1.1//EN" "http://www.w3.org/Graphics/SVG/1.1/DTD/svg11.dtd"><svg t="1614568786711" class="icon" viewBox="0 0 1097 1024" version="1.1" xmlns="http://www.w3.org/2000/svg" p-id="12980" xmlns:xlink="http://www.w3.org/1999/xlink" width="17.140625" height="16"><defs><style type="text/css"></style></defs><path d="M709.737 701.908a150.56 150.56 0 1 1 150.56-150.56 150.56 150.56 0 0 1-150.56 150.56z m0-250.531a99.971 99.971 0 1 0 99.971 99.971 99.971 99.971 0 0 0-99.971-99.67z m327.015 572.427a27.1 27.1 0 0 1-25.896-19.272c-3.012-8.732-71.064-218.612-301.12-218.612h-5.42a298.409 298.409 0 0 0-293.59 210.783 27.1 27.1 0 0 1-52.696-13.851A358.331 358.331 0 0 1 703.413 732.32h6.324c271.007 0 353.513 254.445 354.417 256.854a27.402 27.402 0 0 1-18.068 34.026 24.692 24.692 0 0 1-9.334 0.603z m-775.682-13.25H132.492A132.793 132.793 0 0 1 0 878.062v-745.57A132.492 132.492 0 0 1 132.492 0H963.58a132.793 132.793 0 0 1 132.492 132.492v560.081h-60.224v-560.08a72.57 72.57 0 0 0-72.268-72.27H132.492a72.57 72.57 0 0 0-72.268 72.27v745.57a72.57 72.57 0 0 0 72.268 72.268H261.07zM18.97 239.69h1065.36v60.224H18.97z m744.065-124.06h65.945v65.945h-65.945z m130.685 0h65.945v65.945H893.72z" p-id="12981" fill="#969696"></path></svg>